name C:\Users\antoi\Documents\MyRepositories\upper-imu-dc\Results\main_tracking\Case_75\kinematics.mot
datacolumns 43
datarows 12
range 0.84000000 1.06000000
endheader 
time	clav_prot	clav_elev	scapula_abduction	scapula_elevation	scapula_upward_rot	scapula_winging	plane_elv	shoulder_elv	axial_rot	TrapeziusScapula_M/activation	TrapeziusScapula_S/activation	TrapeziusScapula_I/activation	TrapeziusClavicle_S/activation	SerratusAnterior_I/activation	SerratusAnterior_M/activation	SerratusAnterior_S/activation	Rhomboideus_S/activation	Rhomboideus_I/activation	LevatorScapulae/activation	Coracobrachialis/activation	DeltoideusClavicle_A/activation	DeltoideusScapula_P/activation	DeltoideusScapula_M/activation	LatissimusDorsi_S/activation	LatissimusDorsi_M/activation	LatissimusDorsi_I/activation	PectoralisMajorClavicle_S/activation	PectoralisMajorThorax_I/activation	PectoralisMajorThorax_M/activation	TeresMajor/activation	Infraspinatus_I/activation	Infraspinatus_S/activation	PectoralisMinor/activation	TeresMinor/activation	Subscapularis_S/activation	Subscapularis_M/activation	Subscapularis_I/activation	Supraspinatus_P/activation	Supraspinatus_A/activation	TRIlong/activation	BIC_long/activation	BIC_brevis/activation	
          0.84000000	        -22.60256694	         -7.28855318	        -12.86334224	         -5.86585809	         11.21666412	          6.91154547	          8.25651652	         19.23831004	         14.84624126	          0.02494823	          0.05793678	          0.01548200	          0.03273439	          0.06165557	          0.05420376	          0.01181952	          0.01676169	          0.01000000	          0.01617733	          0.05130836	          0.12228073	          0.01000000	          0.07097515	          0.01000000	          0.01000000	          0.01439622	          0.08171313	          0.01489365	          0.07289842	          0.01000000	          0.03552404	          0.03254938	          0.01000000	          0.01370137	          0.01506454	          0.01037687	          0.01000000	          0.03908027	          0.06995219	          0.01000000	          0.08038299	          0.07544505	
          0.86000000	        -22.37543390	         -7.30034321	        -12.41812609	         -5.88558822	         11.30851636	          6.88241517	         11.48809424	         20.16865581	         12.13142038	          0.02516713	          0.05785881	          0.01540004	          0.03268624	          0.06129854	          0.05416682	          0.01179490	          0.01692537	          0.01000000	          0.01651059	          0.05569505	          0.12889912	          0.01000000	          0.07177776	          0.01000000	          0.01000000	          0.01414284	          0.08353928	          0.01212276	          0.07198511	          0.01000000	          0.03689171	          0.03211937	          0.01000000	          0.01350918	          0.01468386	          0.01125282	          0.01000000	          0.04018103	          0.07089366	          0.01000000	          0.07947757	          0.08200585	
          0.88000000	        -22.15279975	         -7.30894028	        -11.96805258	         -5.90924090	         11.42338161	          6.84534307	         14.70590549	         21.16299302	          9.48122114	          0.02545072	          0.05795689	          0.01528603	          0.03273354	          0.06109209	          0.05411132	          0.01169861	          0.01711586	          0.01000000	          0.01681129	          0.06004912	          0.13512147	          0.01000000	          0.07246388	          0.01000000	          0.01000000	          0.01386755	          0.08495416	          0.01000000	          0.07024527	          0.01000000	          0.03857252	          0.03156456	          0.01000000	          0.01343418	          0.01414138	          0.01194267	          0.01000000	          0.04119617	          0.07157440	          0.01000000	          0.07777979	          0.08873501	
          0.90000000	        -21.94100625	         -7.31799746	        -11.52110501	         -5.94099615	         11.56506193	          6.80148300	         17.88722935	         22.21675517	          6.87676995	          0.02592010	          0.05884103	          0.01502505	          0.03301802	          0.06112583	          0.05441210	          0.01146994	          0.01741134	          0.01000000	          0.01725742	          0.06425617	          0.14081667	          0.01000000	          0.07282712	          0.01000000	          0.01000000	          0.01353752	          0.08600546	          0.01000000	          0.06756799	          0.01000000	          0.04056297	          0.03104078	          0.01000000	          0.01365124	          0.01333903	          0.01226473	          0.01000000	          0.04208869	          0.07191703	          0.01000000	          0.07559632	          0.09542847	
          0.92000000	        -21.74520835	         -7.32922245	        -11.08283689	         -5.98379090	         11.73874323	          6.75095079	         21.01369800	         23.32310774	          4.28026730	          0.02642663	          0.05970257	          0.01483075	          0.03329923	          0.06116445	          0.05472551	          0.01123114	          0.01771132	          0.01000000	          0.01769202	          0.06823742	          0.14608785	          0.01000000	          0.07283301	          0.01000000	          0.01000000	          0.01318342	          0.08676380	          0.01000000	          0.06438328	          0.01000000	          0.04286784	          0.03040489	          0.01000000	          0.01408475	          0.01228101	          0.01225180	          0.01000000	          0.04287298	          0.07201508	          0.01000000	          0.07289928	          0.10217449	
          0.94000000	        -21.56921144	         -7.34133680	        -10.65577291	         -6.03872327	         11.95185777	          6.69212986	         24.07203177	         24.47213317	          1.64409046	          0.02696416	          0.06063903	          0.01466676	          0.03359048	          0.06131143	          0.05512448	          0.01097114	          0.01801088	          0.01000000	          0.01811109	          0.07174790	          0.15084906	          0.01000000	          0.07257317	          0.01000000	          0.01000000	          0.01279107	          0.08721208	          0.01000000	          0.06071981	          0.01000000	          0.04537861	          0.02961221	          0.01000000	          0.01471691	          0.01088001	          0.01187467	          0.01000000	          0.04351376	          0.07181289	          0.01000000	          0.06967684	          0.10877039	
          0.96000000	        -21.41510557	         -7.35112062	        -10.23921867	         -6.10549407	         12.21280522	          6.62229101	         27.05210290	         25.65255921	         -1.07587297	          0.02751271	          0.06163476	          0.01454851	          0.03389827	          0.06160176	          0.05564876	          0.01070724	          0.01828983	          0.01000000	          0.01849163	          0.07460056	          0.15508794	          0.01000000	          0.07211651	          0.01000000	          0.01000000	          0.01235769	          0.08735826	          0.01000000	          0.05663430	          0.01000000	          0.04808577	          0.02873155	          0.01000000	          0.01559965	          0.01000000	          0.01105841	          0.01000000	          0.04397633	          0.07123128	          0.01000000	          0.06600669	          0.11500183	
          0.98000000	        -21.28292268	         -7.35491311	         -9.82925038	         -6.18310299	         12.52928629	          6.53848707	         29.94437475	         26.85346129	         -3.90632895	          0.02803162	          0.06261903	          0.01444388	          0.03421199	          0.06205084	          0.05632614	          0.01044723	          0.01854065	          0.01000000	          0.01883836	          0.07664925	          0.15881660	          0.01000000	          0.07154548	          0.01000000	          0.01000000	          0.01187050	          0.08721335	          0.01000000	          0.05220697	          0.01000000	          0.05092536	          0.02764929	          0.01000000	          0.01661821	          0.01000000	          0.01000000	          0.01000000	          0.04423663	          0.07022460	          0.01000000	          0.06187453	          0.12075524	
          1.00000000	        -21.16990298	         -7.34837688	         -9.41778352	         -6.26947332	         12.90774474	          6.43745345	         32.73927945	         28.06451194	         -6.84554781	          0.02847278	          0.06348995	          0.01428705	          0.03450304	          0.06267683	          0.05716760	          0.01022659	          0.01873358	          0.01000000	          0.01912856	          0.07779502	          0.16196893	          0.01000000	          0.07094620	          0.01000000	          0.01000000	          0.01131095	          0.08676817	          0.01000000	          0.04750630	          0.01000000	          0.05357489	          0.02645648	          0.01000000	          0.01774482	          0.01000000	          0.01000000	          0.01000000	          0.04426654	          0.06875166	          0.01000000	          0.05745040	          0.12596263	
          1.02000000	        -21.07081381	         -7.32694903	         -8.99330381	         -6.36169370	         13.35287391	          6.31588844	         35.42716867	         29.27634892	         -9.85896373	          0.02880422	          0.06417758	          0.01406977	          0.03477510	          0.06346397	          0.05821221	          0.01007853	          0.01886277	          0.01000000	          0.01936437	          0.07794504	          0.16443957	          0.01000000	          0.07048787	          0.01000000	          0.01000000	          0.01067943	          0.08601792	          0.01000000	          0.04265540	          0.01000000	          0.05565412	          0.02490532	          0.01000000	          0.01867089	          0.01000000	          0.01000000	          0.01000000	          0.04405644	          0.06686338	          0.01000000	          0.05283465	          0.13041441	
          1.04000000	        -20.97929779	         -7.28652944	         -8.54332589	         -6.45652580	         13.86718372	          6.17095855	         37.99904878	         30.48117377	        -12.88415948	          0.02902019	          0.06471604	          0.01378497	          0.03503119	          0.06443079	          0.05945335	          0.01000675	          0.01890970	          0.01000000	          0.01951513	          0.07710086	          0.16616099	          0.01000000	          0.07035072	          0.01000000	          0.01000000	          0.01000000	          0.08498435	          0.01000000	          0.03776054	          0.01000000	          0.05700382	          0.02302704	          0.01000000	          0.01931281	          0.01000000	          0.01000000	          0.01000000	          0.04360876	          0.06462783	          0.01000000	          0.04823100	          0.13400702	
          1.06000000	        -20.88959595	         -7.22411677	         -8.05738022	         -6.55097103	         14.45084806	          6.00079838	         40.44760214	         31.67326045	        -15.84100346	          0.02915032	          0.06512388	          0.01344811	          0.03527773	          0.06555052	          0.06084765	          0.01000188	          0.01888447	          0.01000000	          0.01959629	          0.07532386	          0.16699697	          0.01000000	          0.07060385	          0.01000000	          0.01000000	          0.01000000	          0.08367480	          0.01000000	          0.03290475	          0.01000000	          0.05754015	          0.02104312	          0.01000000	          0.01968639	          0.01000000	          0.01000000	          0.01000000	          0.04294368	          0.06210010	          0.01000000	          0.04381983	          0.13670046	
